<svg width="368" height="415" viewBox="0 0 368 415" fill="none" xmlns="http://www.w3.org/2000/svg">
<path d="M211 195L52.75 285.933V104.067L211 195Z" fill="#00C371"/>
<path d="M74 310L232.25 219.067L232.25 400.933L74 310Z" fill="white"/>
<ellipse cx="273.129" cy="77.702" rx="41" ry="31" transform="rotate(-23.0405 273.129 77.702)" fill="#C8A35A"/>
<ellipse cx="250.413" cy="53.6758" rx="14.5" ry="36" transform="rotate(-23.0405 250.413 53.6758)" fill="#C8A35A"/>
<rect x="156.09" y="93.7924" width="88" height="54" rx="5" transform="rotate(-23.0405 156.09 93.7924)" fill="#1864AB"/>
<rect x="284.491" y="174" width="81" height="154" rx="14" transform="rotate(10.6613 284.491 174)" fill="#111111"/>
<rect x="287.127" y="181.619" width="73" height="141" rx="7" transform="rotate(10.6613 287.127 181.619)" fill="#57FFD7"/>
<path d="M302.782 231.283L300.489 230.851C300.503 230.547 300.468 230.267 300.382 230.013C300.297 229.755 300.168 229.524 299.997 229.322C299.825 229.12 299.615 228.95 299.366 228.813C299.121 228.677 298.845 228.58 298.538 228.522C297.983 228.417 297.473 228.464 297.01 228.662C296.547 228.857 296.153 229.195 295.827 229.676C295.502 230.153 295.27 230.763 295.13 231.507C294.986 232.271 294.979 232.934 295.108 233.497C295.24 234.06 295.487 234.513 295.849 234.856C296.211 235.199 296.662 235.421 297.203 235.523C297.507 235.58 297.796 235.593 298.069 235.561C298.346 235.53 298.6 235.457 298.831 235.342C299.063 235.223 299.266 235.064 299.441 234.866C299.619 234.668 299.761 234.431 299.868 234.155L302.158 234.597C302.007 235.078 301.769 235.524 301.445 235.937C301.126 236.346 300.734 236.693 300.268 236.978C299.807 237.26 299.283 237.454 298.695 237.56C298.112 237.663 297.477 237.65 296.789 237.521C295.833 237.341 295.019 236.964 294.346 236.389C293.678 235.815 293.202 235.077 292.92 234.175C292.642 233.273 292.613 232.239 292.832 231.074C293.052 229.905 293.459 228.952 294.053 228.214C294.647 227.477 295.362 226.965 296.196 226.677C297.032 226.386 297.92 226.33 298.863 226.507C299.484 226.624 300.043 226.82 300.541 227.094C301.042 227.369 301.467 227.713 301.816 228.125C302.165 228.534 302.424 229.004 302.591 229.534C302.762 230.065 302.826 230.648 302.782 231.283ZM306.159 234.32L305.284 238.968L303.054 238.549L305.072 227.828L307.24 228.236L306.468 232.335L306.562 232.352C306.833 231.912 307.196 231.595 307.651 231.403C308.108 231.207 308.641 231.166 309.252 231.281C309.81 231.386 310.274 231.6 310.643 231.923C311.017 232.242 311.276 232.651 311.421 233.148C311.57 233.642 311.583 234.203 311.462 234.83L310.498 239.95L308.268 239.53L309.157 234.808C309.254 234.313 309.201 233.904 308.998 233.581C308.798 233.258 308.472 233.053 308.018 232.968C307.715 232.911 307.434 232.925 307.176 233.01C306.921 233.096 306.704 233.25 306.525 233.473C306.35 233.693 306.228 233.975 306.159 234.32ZM315.888 241.127C315.061 240.971 314.38 240.67 313.846 240.223C313.317 239.772 312.95 239.208 312.745 238.53C312.541 237.848 312.519 237.084 312.678 236.236C312.834 235.408 313.131 234.713 313.57 234.149C314.008 233.584 314.552 233.183 315.201 232.943C315.853 232.705 316.573 232.66 317.362 232.808C317.892 232.908 318.37 233.086 318.795 233.343C319.224 233.598 319.578 233.926 319.856 234.329C320.138 234.733 320.326 235.209 320.422 235.758C320.518 236.304 320.501 236.919 320.372 237.603L320.257 238.215L313.468 236.937L313.728 235.555L318.418 236.438C318.479 236.117 318.462 235.819 318.369 235.545C318.276 235.271 318.119 235.041 317.898 234.855C317.68 234.666 317.409 234.541 317.085 234.48C316.746 234.416 316.431 234.438 316.14 234.546C315.853 234.651 315.611 234.82 315.416 235.054C315.22 235.285 315.091 235.559 315.028 235.876L314.781 237.19C314.706 237.587 314.714 237.945 314.806 238.262C314.902 238.58 315.071 238.843 315.314 239.052C315.556 239.26 315.864 239.399 316.238 239.469C316.485 239.516 316.719 239.524 316.938 239.493C317.157 239.462 317.353 239.39 317.526 239.278C317.699 239.166 317.842 239.016 317.957 238.828L319.994 239.353C319.796 239.829 319.5 240.221 319.106 240.53C318.716 240.836 318.247 241.044 317.698 241.154C317.154 241.261 316.551 241.252 315.888 241.127ZM324.666 242.78C323.843 242.625 323.167 242.317 322.64 241.856C322.116 241.393 321.754 240.819 321.554 240.134C321.358 239.45 321.336 238.702 321.489 237.889C321.644 237.065 321.939 236.373 322.374 235.811C322.812 235.247 323.359 234.846 324.015 234.608C324.671 234.367 325.406 234.322 326.219 234.475C326.92 234.608 327.511 234.851 327.99 235.204C328.469 235.558 328.818 235.995 329.039 236.513C329.259 237.032 329.326 237.604 329.241 238.232L327.137 237.835C327.153 237.423 327.056 237.07 326.848 236.778C326.643 236.483 326.337 236.297 325.928 236.22C325.583 236.155 325.263 236.193 324.969 236.332C324.68 236.47 324.43 236.703 324.22 237.032C324.01 237.361 323.857 237.778 323.762 238.284C323.665 238.797 323.653 239.246 323.725 239.632C323.8 240.019 323.949 240.33 324.172 240.567C324.395 240.804 324.679 240.956 325.025 241.021C325.279 241.069 325.518 241.059 325.74 240.993C325.966 240.927 326.163 240.807 326.333 240.633C326.508 240.456 326.642 240.23 326.737 239.955L328.842 240.352C328.691 240.959 328.422 241.469 328.034 241.88C327.65 242.288 327.171 242.574 326.599 242.737C326.026 242.9 325.382 242.914 324.666 242.78ZM332.171 241.634L332.68 238.96L333.004 239.021L336.154 236.454L338.714 236.936L334.493 240.326L333.964 240.226L332.171 241.634ZM329.715 243.568L331.733 232.847L333.963 233.267L331.945 243.987L329.715 243.568ZM334.74 244.514L333.033 240.566L334.817 239.27L337.352 245.005L334.74 244.514ZM299.667 245.126L297.648 255.847L295.691 255.479L292.297 247.853L292.218 247.838L290.948 254.586L288.681 254.159L290.7 243.438L292.689 243.813L296.047 251.426L296.141 251.444L297.411 244.702L299.667 245.126ZM303.083 257.033C302.27 256.88 301.599 256.575 301.071 256.117C300.547 255.657 300.182 255.087 299.978 254.405C299.775 253.72 299.751 252.965 299.906 252.142C300.062 251.311 300.359 250.616 300.797 250.055C301.236 249.491 301.783 249.091 302.437 248.857C303.096 248.619 303.832 248.577 304.646 248.73C305.459 248.883 306.127 249.19 306.651 249.65C307.18 250.107 307.546 250.678 307.749 251.364C307.953 252.045 307.977 252.801 307.821 253.632C307.666 254.455 307.369 255.149 306.93 255.714C306.492 256.274 305.944 256.673 305.285 256.911C304.63 257.145 303.896 257.186 303.083 257.033ZM303.418 255.307C303.788 255.377 304.117 255.33 304.404 255.168C304.692 255.001 304.933 254.747 305.128 254.404C305.326 254.062 305.469 253.657 305.557 253.189C305.645 252.722 305.659 252.293 305.599 251.902C305.542 251.512 305.41 251.187 305.202 250.927C304.995 250.668 304.706 250.503 304.336 250.434C303.962 250.363 303.628 250.411 303.333 250.576C303.042 250.741 302.797 250.995 302.599 251.337C302.405 251.68 302.263 252.085 302.175 252.553C302.087 253.02 302.072 253.449 302.128 253.839C302.188 254.23 302.324 254.556 302.535 254.816C302.751 255.073 303.045 255.237 303.418 255.307ZM309.904 258.154L309.23 249.702L311.486 250.127L311.715 255.763L311.788 255.777L314.103 250.619L316.318 251.036L316.626 256.655L316.694 256.668L318.93 251.528L321.181 251.952L317.484 259.581L315.123 259.137L314.693 253.82L314.594 253.801L312.26 258.598L309.904 258.154ZM288.009 270.831L287.843 271.396C287.711 271.848 287.537 272.291 287.322 272.723C287.11 273.16 286.899 273.552 286.689 273.9C286.482 274.247 286.317 274.52 286.193 274.717L284.749 274.445C284.84 274.249 284.965 273.975 285.126 273.622C285.286 273.272 285.449 272.877 285.615 272.435C285.781 271.992 285.92 271.536 286.03 271.065L286.166 270.484L288.009 270.831ZM287.836 266.625C287.491 266.56 287.217 266.382 287.015 266.091C286.817 265.801 286.751 265.481 286.816 265.132C286.881 264.79 287.058 264.522 287.347 264.327C287.641 264.129 287.961 264.063 288.306 264.128C288.641 264.191 288.911 264.368 289.117 264.66C289.322 264.948 289.393 265.263 289.329 265.605C289.285 265.839 289.185 266.04 289.031 266.21C288.88 266.377 288.7 266.498 288.491 266.575C288.281 266.651 288.063 266.667 287.836 266.625ZM294.34 269.09C294.095 270.392 293.695 271.556 293.14 272.583C292.589 273.61 291.868 274.522 290.977 275.319L288.847 274.918C289.184 274.624 289.516 274.249 289.844 273.794C290.172 273.339 290.479 272.833 290.764 272.276C291.05 271.716 291.302 271.127 291.519 270.511C291.737 269.894 291.904 269.275 292.021 268.654C292.176 267.827 292.248 266.977 292.235 266.103C292.227 265.227 292.144 264.402 291.986 263.628C291.832 262.851 291.617 262.198 291.341 261.669L293.471 262.07C294.011 263.137 294.351 264.249 294.491 265.406C294.635 266.564 294.584 267.792 294.34 269.09Z" fill="white"/>
</svg>
