<svg width="1263" height="325" viewBox="0 0 1263 325" fill="none" xmlns="http://www.w3.org/2000/svg">
<path d="M211 105L52.75 195.933V14.0673L211 105Z" fill="#00C371"/>
<path d="M74 220L232.25 129.067L232.25 310.933L74 220Z" fill="white"/>
<path d="M403.994 135H390.784C390.003 131.2 388.636 127.862 386.683 124.986C384.765 122.109 382.421 119.695 379.651 117.741C376.917 115.753 373.881 114.261 370.543 113.267C367.205 112.273 363.724 111.776 360.102 111.776C353.497 111.776 347.513 113.445 342.151 116.783C336.825 120.121 332.581 125.039 329.42 131.538C326.295 138.036 324.733 146.009 324.733 155.455C324.733 164.901 326.295 172.873 329.42 179.371C332.581 185.87 336.825 190.788 342.151 194.126C347.513 197.464 353.497 199.134 360.102 199.134C363.724 199.134 367.205 198.636 370.543 197.642C373.881 196.648 376.917 195.174 379.651 193.221C382.421 191.232 384.765 188.8 386.683 185.923C388.636 183.011 390.003 179.673 390.784 175.909H403.994C403 181.484 401.189 186.474 398.561 190.877C395.933 195.281 392.666 199.027 388.76 202.116C384.854 205.17 380.468 207.496 375.603 209.094C370.773 210.692 365.607 211.491 360.102 211.491C350.798 211.491 342.524 209.219 335.28 204.673C328.036 200.128 322.336 193.665 318.181 185.284C314.026 176.903 311.949 166.96 311.949 155.455C311.949 143.949 314.026 134.006 318.181 125.625C322.336 117.244 328.036 110.781 335.28 106.236C342.524 101.69 350.798 99.4176 360.102 99.4176C365.607 99.4176 370.773 100.217 375.603 101.815C380.468 103.413 384.854 105.756 388.76 108.846C392.666 111.9 395.933 115.629 398.561 120.032C401.189 124.4 403 129.389 403.994 135ZM436.208 160.781V210H423.637V100.909H436.208V140.966H437.273C439.191 136.74 442.067 133.384 445.902 130.898C449.773 128.377 454.922 127.116 461.35 127.116C466.925 127.116 471.808 128.235 475.998 130.472C480.188 132.674 483.438 136.065 485.746 140.646C488.09 145.192 489.262 150.98 489.262 158.011V210H476.691V158.864C476.691 152.365 475.004 147.34 471.63 143.789C468.292 140.202 463.658 138.409 457.727 138.409C453.608 138.409 449.915 139.279 446.648 141.019C443.416 142.759 440.86 145.298 438.977 148.636C437.131 151.974 436.208 156.023 436.208 160.781ZM546.564 211.705C538.68 211.705 531.88 209.964 526.162 206.484C520.48 202.969 516.095 198.068 513.005 191.783C509.951 185.462 508.424 178.111 508.424 169.73C508.424 161.349 509.951 153.963 513.005 147.571C516.095 141.143 520.392 136.136 525.896 132.55C531.436 128.928 537.899 127.116 545.285 127.116C549.547 127.116 553.755 127.827 557.909 129.247C562.064 130.668 565.846 132.976 569.255 136.172C572.664 139.332 575.381 143.523 577.405 148.743C579.429 153.963 580.441 160.391 580.441 168.026V173.352H517.373V162.486H567.657C567.657 157.869 566.734 153.75 564.887 150.128C563.076 146.506 560.484 143.647 557.11 141.552C553.772 139.457 549.831 138.409 545.285 138.409C540.278 138.409 535.946 139.652 532.288 142.138C528.666 144.588 525.878 147.784 523.925 151.726C521.972 155.668 520.995 159.893 520.995 164.403V171.648C520.995 177.827 522.061 183.065 524.191 187.362C526.358 191.623 529.358 194.872 533.194 197.109C537.029 199.311 541.485 200.412 546.564 200.412C549.866 200.412 552.849 199.95 555.512 199.027C558.211 198.068 560.537 196.648 562.49 194.766C564.444 192.848 565.953 190.469 567.018 187.628L579.163 191.037C577.885 195.156 575.736 198.778 572.718 201.903C569.699 204.993 565.971 207.408 561.532 209.148C557.093 210.852 552.103 211.705 546.564 211.705ZM632.803 211.705C625.132 211.705 618.527 209.893 612.988 206.271C607.448 202.649 603.186 197.66 600.203 191.303C597.221 184.947 595.729 177.685 595.729 169.517C595.729 161.207 597.256 153.874 600.31 147.518C603.4 141.126 607.696 136.136 613.201 132.55C618.74 128.928 625.203 127.116 632.59 127.116C638.343 127.116 643.527 128.182 648.144 130.312C652.76 132.443 656.542 135.426 659.49 139.261C662.437 143.097 664.266 147.571 664.976 152.685H652.405C651.446 148.956 649.316 145.653 646.013 142.777C642.746 139.865 638.343 138.409 632.803 138.409C627.902 138.409 623.605 139.687 619.912 142.244C616.255 144.766 613.396 148.335 611.336 152.951C609.312 157.532 608.3 162.912 608.3 169.091C608.3 175.412 609.294 180.916 611.283 185.604C613.307 190.291 616.148 193.931 619.806 196.523C623.499 199.116 627.831 200.412 632.803 200.412C636.07 200.412 639.035 199.844 641.699 198.707C644.362 197.571 646.617 195.938 648.463 193.807C650.31 191.676 651.624 189.119 652.405 186.136H664.976C664.266 190.966 662.508 195.316 659.703 199.187C656.933 203.022 653.257 206.076 648.676 208.349C644.131 210.586 638.84 211.705 632.803 211.705ZM695.072 180.17L694.859 164.616H697.416L733.211 128.182H748.765L710.626 166.747H709.561L695.072 180.17ZM683.353 210V100.909H695.924V210H683.353ZM735.342 210L703.382 169.517L712.331 160.781L751.322 210H735.342ZM804.935 157.372V169.091H757.208V157.372H804.935ZM915.265 100.909V210H902.481L843.035 124.347H841.969V210H828.759V100.909H841.543L901.202 186.776H902.268V100.909H915.265ZM973.233 211.705C965.846 211.705 959.365 209.947 953.79 206.431C948.25 202.915 943.918 197.997 940.793 191.676C937.703 185.355 936.159 177.969 936.159 169.517C936.159 160.994 937.703 153.555 940.793 147.198C943.918 140.842 948.25 135.906 953.79 132.39C959.365 128.874 965.846 127.116 973.233 127.116C980.619 127.116 987.082 128.874 992.622 132.39C998.197 135.906 1002.53 140.842 1005.62 147.198C1008.74 153.555 1010.31 160.994 1010.31 169.517C1010.31 177.969 1008.74 185.355 1005.62 191.676C1002.53 197.997 998.197 202.915 992.622 206.431C987.082 209.947 980.619 211.705 973.233 211.705ZM973.233 200.412C978.843 200.412 983.46 198.974 987.082 196.097C990.704 193.221 993.385 189.439 995.125 184.751C996.865 180.064 997.735 174.986 997.735 169.517C997.735 164.048 996.865 158.952 995.125 154.229C993.385 149.506 990.704 145.689 987.082 142.777C983.46 139.865 978.843 138.409 973.233 138.409C967.622 138.409 963.005 139.865 959.383 142.777C955.761 145.689 953.08 149.506 951.34 154.229C949.6 158.952 948.73 164.048 948.73 169.517C948.73 174.986 949.6 180.064 951.34 184.751C953.08 189.439 955.761 193.221 959.383 196.097C963.005 198.974 967.622 200.412 973.233 200.412ZM1045.25 210L1020.32 128.182H1033.53L1051.22 190.824H1052.07L1069.54 128.182H1082.96L1100.22 190.611H1101.07L1118.76 128.182H1131.97L1107.04 210H1094.68L1076.78 147.145H1075.51L1057.61 210H1045.25Z" fill="white"/>
</svg>
